<?xml version="1.0" encoding="utf-8"?><!DOCTYPE svg PUBLIC "-//W3C//DTD SVG 1.1//EN" "http://www.w3.org/Graphics/SVG/1.1/DTD/svg11.dtd"><svg viewBox="0 0 1000 1000" xmlns="http://www.w3.org/2000/svg" xmlns:xlink="http://www.w3.org/1999/xlink"><style>:root>svg{display:none}:root>svg:target{display:block}</style><svg viewBox="0 0 92 92" xmlns:bx="https://boxy-svg.com" id="bag" xmlns="http://www.w3.org/2000/svg"><g bx:origin="0.477776 0.495767"><path style="stroke:none;stroke-width:1;stroke-dasharray:none;stroke-linecap:butt;stroke-dashoffset:0;stroke-linejoin:miter;stroke-miterlimit:4;fill-rule:nonzero;opacity:1;fill:#2057b6" vector-effect="non-scaling-stroke" transform="matrix(.09184 0 0 .09865 .082 -3.32)" d="M990 800.2c0 86.1-69.8 155.9-155.9 155.9H165.9C79.8 956.1 10 886.3 10 800.2V332.4c0-86.1 69.8-155.9 155.9-155.9h668.2c86.1 0 155.9 69.8 155.9 155.9v467.8zm-44.7-467.7c0-61.5-49.9-111.4-111.4-111.4H166c-61.5 0-111.4 49.9-111.4 111.4v467.6c0 61.5 49.9 111.4 111.4 111.4h668c61.5 0 111.4-49.9 111.4-111.4V332.5z"/><path style="stroke:none;stroke-width:1;stroke-dasharray:none;stroke-linecap:butt;stroke-dashoffset:0;stroke-linejoin:miter;stroke-miterlimit:4;fill-rule:nonzero;opacity:1;fill:#2057b6" vector-effect="non-scaling-stroke" transform="matrix(.09184 0 0 .09865 .082 -3.32)" d="M723.4 221.1H276.6v-98c0-51.4 50.2-79.3 96.9-79.3h267.3c49.8 0 82.6 31.2 82.6 79.3v98zm-402.1-44.6h357.4v-53.3c0-14.9-4.4-34.6-37.9-34.6H373.5c-20 0-52.2 9.4-52.2 34.6v53.3zM232.7 845.8c-12.3 0-22.3-10-22.3-22.3V289c0-12.3 10-22.3 22.3-22.3s22.3 10 22.3 22.3v534.5c0 12.3-10 22.3-22.3 22.3zM767.3 845.8c-12.3 0-22.3-10-22.3-22.3V289c0-12.3 10-22.3 22.3-22.3s22.3 10 22.3 22.3v534.5c.1 12.3-10 22.3-22.3 22.3z"/></g></svg><svg viewBox="0 0 92 92" xmlns:bx="https://boxy-svg.com" id="camp" xmlns="http://www.w3.org/2000/svg"><g bx:origin="0.499898 0.5"><path d="m167.7 1431.2-16.7 87-83.3-29 29 83.3-86.7 16.7 66.6 57.6-66.6 57.7 86.7 16.7-29 83.3 83.3-29 16.7 87 57.6-66.9 58 66.9 16.4-87 83.7 29-29-83.3 86.7-16.7-66.9-57.6 66.9-57.6-86.7-16.7 29-83.3-83.7 29-16.4-87-58 66.9-57.6-67zm57.6 97c21.6 0 41.5 5.3 59.7 16 18.2 10.7 32.6 25 43.1 43.1s15.8 37.9 15.8 59.5c0 32.7-11.6 60.7-34.8 83.9-23.2 23.2-51.1 34.8-83.9 34.8-32.7 0-60.6-11.6-83.7-34.8-23.1-23.2-34.6-51.1-34.6-83.9 0-32.7 11.5-60.7 34.6-83.9 23.2-23.1 51.1-34.7 83.8-34.7zm364.5-550.8V996c0 5.2 1.8 9.6 5.4 13.2 3.6 3.6 8 5.4 13.2 5.4H627v148.8H385.3c-6.4 0-9.7 1.9-9.7 5.6 0 2.2 1.4 4.7 4.1 7.4L556 1349.3H424c-6.4 0-9.7 1.9-9.7 5.6 0 2.2 1.4 4.7 4.1 7.4l176.3 172.9h-94.8c-6.4 0-9.7 1.9-9.7 5.6 0 2.2 1.4 4.7 4.1 7.4l188.6 189.3 188.6-189.3c2.7-2.7 4.1-5.2 4.1-7.4 0-3.7-3.2-5.6-9.7-5.6h-94.8l176.3-172.9c2.7-2.7 4.1-5.2 4.1-7.4 0-3.7-3.2-5.6-9.7-5.6h-132l176.3-172.9c2.7-2.7 4.1-5.2 4.1-7.4 0-3.7-3.2-5.6-9.7-5.6H738.6v-148.8h18.6c5.2 0 9.6-1.8 13.2-5.4 3.6-3.6 5.4-8 5.4-13.2v-18.6h-186zm-557.9 0V993c0 3.5.8 6.8 2.4 10 1.6 3.2 3.9 6 6.9 8.2 3 2.2 6.1 3.3 9.3 3.3h11.2l174.1 277.4-50.2 68.1c-1.5 2.7-2.2 5.7-2.2 8.9 0 6.2 2.6 10.9 7.8 14.1 2.7 1.7 5.7 2.6 8.9 2.6 6.2 0 10.9-2.7 14.1-8.2l41.3-55 41.7 55.8c3.2 5.5 7.9 8.2 14.1 8.2 3.2 0 6.1-.7 8.6-2.2 5.5-3.5 8.2-8.2 8.2-14.1 0-3-.9-5.8-2.6-8.6l-50.6-69.5 173.7-277.4h11.2c5 0 9.3-2.3 13-6.9 3.7-4.6 5.6-9.5 5.6-14.7v-15.6H31.9zm223.2 37.2h140.2l-67.7 41.7-72.5 198.6v-240.3z" style="fill:#2057b6" transform="matrix(.09182 0 0 -.09711 .082 183.871)"/></g></svg><svg viewBox="0 0 1000 1000" xml:space="preserve" id="handset_ring" xmlns="http://www.w3.org/2000/svg"><path d="M212.45 10.62c-1.53.38-9.39 1.72-17.05 2.87-28.35 4.6-68.4 22.22-92.92 40.62-112.65 84.68-122.8 226.26-28.16 395.24 47.9 85.26 114.57 169.36 210.74 265.35 62.07 61.88 106.52 101.16 160.17 141.39 162.27 121.85 302.52 161.32 409.42 115.34 41.58-17.82 83.34-56.13 106.52-97.52 17.44-31.23 31.04-81.62 28.35-104.22-2.68-20.69-18.01-38.32-45.21-52.11-17.63-8.81-164.57-63.99-182.01-68.21-17.43-4.41-25.1-4.6-37.74-.77-17.24 5.17-24.91 13.98-43.68 51.15-18.2 36.02-21.08 40.04-32.57 46.17-6.71 3.64-10.73 4.22-30.65 4.22-28.16 0-34.87-1.92-68.97-20.69-63.42-34.49-101.35-63.42-158.44-120.51-57.29-57.47-85.45-94.45-119.75-157.67-18.78-34.1-20.69-40.81-20.69-68.97 0-19.92.57-23.95 4.22-30.65 6.13-11.5 10.15-14.37 43.68-31.23 16.86-8.43 34.29-18.58 38.7-22.22 15.13-13.03 20.31-32.19 15.13-56.33-3.26-15.52-59.01-165.91-69.74-187.95-8.81-18.01-22.23-32.95-34.68-38.32-9-3.83-28.15-6.51-34.67-4.98zM547.73 13.88c-9.2 4.79-17.24 17.05-17.24 26.44 0 2.68 1.92 8.81 4.41 13.41 5.94 11.88 16.67 17.24 34.49 17.24 72.61 0 155.18 29.31 217.83 77.59 50.96 39.08 96.37 101.35 118.97 162.66 13.03 35.25 22.8 86.02 22.8 118.98 0 18.2 5.17 28.93 17.24 34.87 4.6 2.49 10.73 4.41 13.41 4.41 9.39 0 21.65-8.05 26.44-17.24 4.21-8.05 4.41-9.96 3.45-32.57-3.06-61.31-17.62-117.44-44.64-171.47C875.15 108.15 737.21 18.1 580.3 10.44c-22.61-.97-24.52-.78-32.57 3.44z"/><path d="M517.07 136.49c-15.9 8.05-22.03 30.08-12.07 43.3 8.04 10.73 12.26 12.45 37.36 14.18 42.91 2.87 77.78 12.07 112.08 29.5 27.01 13.79 47.7 28.93 70.5 51.54 49.24 49.05 76.63 110.16 80.66 179.71 1.34 24.52 3.26 30.27 11.3 37.55 16.86 14.75 42.92 6.51 48.85-15.33 2.87-10.35 0-47.9-5.75-75.87-29.89-144.65-151.35-252.7-299.83-266.88-29.49-2.68-33.52-2.49-43.1 2.3z"/><path d="M486.8 258.15c-22.42 10.92-22.61 42.53-.38 53.64 5.75 3.06 11.88 4.41 19.16 4.41 26.44 0 62.84 10.73 88.51 26.06 20.31 12.26 45.02 35.64 58.05 55.18 18.97 28.55 28.55 57.09 31.23 93.49 1.92 23.95 4.21 28.74 17.63 35.44 10.73 5.55 16.09 5.55 26.82 0 6.32-3.07 9.77-6.51 13.03-12.84 4.21-7.85 4.41-10.15 3.26-26.82-2.49-36.4-10.15-65.14-26.05-96.94-24.33-49.05-69.16-91.58-119.17-113.61-39.28-17.24-95.42-26.25-112.09-18.01zM456.15 380.77c-3.45 1.72-8.62 6.13-11.5 9.77-7.09 9.2-7.28 25.29-.58 34.68 5.75 7.85 17.63 13.41 28.93 13.6 21.84.19 42.34 9.58 60.54 27.59 18.01 18.2 27.4 38.7 27.59 60.54.19 24.33 20.31 39.66 41.19 31.61 16.68-6.32 22.04-19.16 18.79-44.83-2.68-21.07-10.15-43.3-20.12-60.54-10.15-17.43-36.78-44.06-54.22-54.22-29.7-17.25-74.33-26.25-90.62-18.2z"/></svg><svg viewBox="0 0 92 92" id="hotel" xmlns="http://www.w3.org/2000/svg"><path d="M745 990S591.9 834.1 591.9 747.9c0-86.2 58-156.1 153.1-156.1s153.1 69.9 153.1 156.1C898.1 834.1 745 990 745 990zm0-306.6c-33.8 0-61.3 27.5-61.3 61.4s27.4 61.3 61.3 61.3c33.8 0 61.3-27.5 61.3-61.3 0-33.9-27.5-61.4-61.3-61.4zM530.6 745c0 41.8 23.4 85.6 47.2 128 8.2 5.5 14 14.4 14 25.1 0 16.9-13.7 30.6-30.6 30.6H132.5c-16.9 0-30.6-13.7-30.6-30.6s13.7-30.6 30.6-30.6h38.8c-5-8.8-8.2-19-8.2-30.6V224.4c0-38.3 12.9-61.3 61.3-61.3-39.6 0-36.4-61.3 0-61.3H255V71.2c0-29.7 31.4-61.3 62.2-61.3h215.3c28.2 0 59.4 35.4 59.4 61.3 0 19.1 1 16.3 1 30.6h29.7c37.3 0 39.6 61.3 0 61.3 35.7 0 61.3 24.5 61.3 61.3v306.5c-58.6-.1-153.3 92.4-153.3 214.1zM316.3 867.5h214.4v-91.9H316.3v91.9zm61.2-490v91.9h91.9v-91.9h-91.9zm91.9-61.2v-91.9h-91.9v91.9h91.9zm-91.9 214.3v91.9h91.9v-91.9h-91.9zm-153.1 91.9h91.9v-91.9h-91.9v91.9zm0-153.1h91.9v-91.9h-91.9v91.9zm0-153.1h91.9v-91.9h-91.9v91.9zm306.2-245H316.2c0 15.3.9 57.4.9 91.9h213.4c.1-13.5.1-74.7.1-91.9zm91.9 153.1h-91.9v91.9h91.9v-91.9zm0 153.1h-91.9v91.9h91.9v-91.9zm-91.9 153.1v61.3l30.6-30.6 30.6-30.6h-61.2z" style="fill:#2057b6" transform="matrix(.09796 0 0 .09183 -2.382 2.091)"/></svg><svg viewBox="252.21 205.213 20 14.412" id="quotes" xmlns="http://www.w3.org/2000/svg"><path d="M22.813 0S3.813 7.916.939 18.435c-3.07 11.241 1.72 18.16 9.504 19.499 6 1.031 11.859-1.969 12.974-8.456 1.115-6.486-5.154-12.285-11.928-10.885-.726-7.336 13.3-14.637 13.3-14.637ZM50.941 0s-19 7.916-21.873 18.435c-3.07 11.241 1.72 18.16 9.504 19.499 6 1.031 11.858-1.969 12.973-8.456 1.115-6.486-5.153-12.285-11.928-10.885-.726-7.336 13.3-14.637 13.3-14.637Z" style="font-size:132.292px;font-family:'Liberation Serif';-inkscape-font-specification:'Noto Sans CJK HK';opacity:1;fill:#174894;fill-opacity:1;stroke:none;stroke-width:.329087;stroke-opacity:1" transform="matrix(.37795 0 0 .37795 252.21 205.213)"/></svg><svg viewBox="5 5 92 92" xmlns:bx="https://boxy-svg.com" id="world" xmlns="http://www.w3.org/2000/svg"><g bx:origin="0.499489 0.50927"><path d="M4477.1 4992.4c-1562.4-180.8-2903.5-1046.7-3696.2-2382C448 2050.5 228.7 1427 134.4 776.7 88.2 449.6 88.2-254.6 136.3-570.2 382.6-2194.1 1387-3575.7 2832-4283.7c344.4-169.3 579.2-255.9 923.6-348.3 1928-506.1 3979.1 213.6 5170.1 1816.3 896.6 1202.6 1191 2720.7 813.9 4173.4-313.6 1198.7-1087.1 2247.4-2155 2920.8-215.5 136.6-650.4 350.2-902.4 442.5-248.2 92.4-713.8 207.8-992.8 250.1-294.5 44.4-923.7 54-1212.3 21.3zm321.4-1627.8V2133.2h-161.6c-198.2 0-650.4 46.2-958.2 98.1-263.6 44.2-781.2 165.5-806.2 190.5-50 50 344.4 890.9 573.4 1219.9 153.9 219.3 409.8 494.5 586.9 629.2 209.7 157.8 567.6 319.4 725.4 323.2 38.3 2 38.3 2 40.3-1229.5zm552.2 1200.7c640.7-163.5 1268-860.1 1652.8-1835.6 138.5-350.2 153.9-309.8-134.7-381-511.8-127-1019.8-200.1-1418.1-204l-252.1-1.9-1.9 1227.6c0 731.2 5.8 1225.7 17.3 1225.7 9.7 0 71.3-13.5 136.7-30.8zm1579.7-390.6c275.1-130.8 527.2-284.8 781.2-475.3 200.1-152 525.3-452.2 652.3-604.2l77-92.4-130.8-77c-180.9-107.8-448.3-238.6-646.5-319.4-150.1-59.6-169.3-63.5-178.9-34.6-102 294.4-304 738.9-442.5 983.2-109.7 188.6-319.4 481-467.6 652.3l-155.8 177 140.5-50c76.7-26.9 244.1-100 371.1-159.6zM3409.2 4217c-263.6-300.2-473.3-619.6-654.2-996.7-102-213.6-227-519.5-252.1-611.9-5.8-28.9-21.2-52-30.8-52-67.3 0-625.3 265.5-819.7 388.7l-102 65.4 186.6 196.3c436.8 463.7 990.9 842.8 1579.7 1081.4 103.9 42.3 196.3 77 203.9 77 9.9 0-42.1-65.5-111.4-148.2zm-1926-1620.1c192.4-115.4 465.6-254 694.6-350.2 130.8-55.8 173.2-80.8 171.2-107.8-1.9-19.2-30.8-153.9-63.5-298.2-100.1-438.7-157.8-879.3-186.7-1433.5l-13.5-255.9H488.4l13.5 217.4C538.5 973 700.1 1575.2 963.7 2102.4c127 250.1 329 588.8 352.1 588.8 5.8 0 80.8-42.3 167.4-94.3zm7300.1-53.9c290.6-457.9 513.8-996.7 617.7-1502.7 46.2-223.2 98.1-638.8 98.1-788.9v-100l-812 3.8-813.9 5.8-11.5 327.1c-19.2 494.5-86.6 983.2-200.1 1464.3-26.9 113.5-46.2 207.8-44.3 209.7 3.9 3.8 82.7 36.6 175.1 75 207.8 86.6 577.2 271.3 744.6 375.2 69.3 42.3 130.8 77 138.5 78.9 5.8 0 53.9-67.4 107.8-148.2zm-5845.5-554.1c402.1-119.3 1085.2-227 1581.6-252.1l263.6-13.5 9.6-117.4c11.5-153.9 11.5-1333.4 0-1400.8l-11.6-53.9H2489.5l13.5 275.1c15.4 309.8 55.8 710 98.1 965.9 52 305.9 132.8 644.6 152 644.6 11.6.2 94.3-22.9 184.7-47.9zm4310.1-23.1c42.3-148.1 132.8-638.8 163.6-871.6 32.7-265.5 71.2-902.4 55.8-927.4-5.8-7.7-515.7-15.4-1133.3-15.4H5212.1l-11.6 73.1c-11.5 92.4-11.5 1293 0 1410.4l9.6 88.5 263.6 11.5c477.2 23.1 1092.9 119.3 1504.7 234.7 121.2 34.6 227 63.5 234.7 65.4 7.8.1 23.2-30.7 34.8-69.2zM2110.5-362.4c0-284.8 102-979.4 200.1-1381.5 26.9-105.8 42.3-198.2 34.6-203.9-7.7-5.8-65.4-30.8-128.9-55.8-186.6-71.2-531.1-242.4-719.6-356-96.2-57.7-177-105.8-182.8-105.8-17.3 0-213.6 321.3-319.4 525.3-132.8 257.8-223.2 481-317.5 792.7C611.6-928 513.4-429.7 513.4-308.5v55.8h1597.1v-109.7zm2682.2 57.7c5.8-30.8 7.7-309.8 5.8-621.5l-3.8-567.6-259.8-13.5c-515.7-26.9-1035.2-107.7-1537.4-238.6-140.5-36.6-259.7-63.5-261.7-61.6-7.7 7.7-100.1 429.1-123.1 563.8-40.4 221.3-78.9 559.9-92.4 775.4l-11.5 215.5h2272.3l11.6-51.9zm2659.1-134.6c-21.2-313.6-67.3-652.3-138.5-1004.4-36.6-182.8-69.3-340.6-75-348.3-5.8-7.7-102 9.6-215.5 40.4-467.5 125.1-1054.4 217.4-1564.3 244.3l-259.8 13.5-3.9 586.9c-1.9 323.2 0 602.2 5.8 621.5 9.6 30.8 80.8 32.7 1137.2 32.7h1127.5l-13.5-186.6zm2018.4 57.7c-42.3-423.3-205.9-1006.3-390.6-1396.9-94.3-198.2-292.5-546.5-367.5-646.5l-34.6-46.2-161.6 96.2c-200.1 121.2-500.3 271.3-723.5 363.7-92.4 38.5-171.2 71.2-175.1 75-1.9 1.9 17.3 94.3 42.3 204 96.2 402.1 165.5 871.6 196.2 1293l11.6 186.6h1616.2l-13.4-128.9zM4798.5-3138.9c0-1058.3-3.8-1231.4-28.9-1231.4-146.2 0-534.9 171.3-736.9 325.2C3722.9-3808.5 3390-3389 3163-2942.6c-125.1 242.4-309.8 700.4-296.3 735 19.2 50 773.5 209.7 1225.7 259.8 280.9 32.7 304 34.6 511.8 36.5l194.3 3.9v-1231.5zm1002.4 1202.6c373.3-40.4 683.1-92.4 1029.4-175.1l286.7-69.3-13.5-51.9c-25-103.9-190.5-498.4-292.5-700.4-384.8-754.3-914-1264.2-1462.3-1406.5-63.5-17.3-125.1-30.8-134.7-30.8-11.5 0-19.2 469.5-19.2 1231.4l1.9 1231.4h159.7c88.6.1 288.7-13.4 444.5-28.8zM8034.8-2552c111.6-55.8 250.1-132.8 307.9-169.3l102-65.4-188.6-198.3c-461.8-479.1-996.7-842.8-1606.6-1087.1-117.4-48.1-217.4-86.6-223.2-86.6-3.8 0 61.6 80.8 148.2 178.9 359.8 406 702.3 1021.7 910.1 1633.6 9.6 28.9 28.9 25 178.9-34.6 92.3-36.5 259.7-113.5 371.3-171.2zm-5479.9 13.4c209.7-559.9 529.1-1102.5 873.5-1481.6 59.6-65.4 103.9-119.3 96.2-119.3-30.8 0-367.5 140.5-527.2 219.4C2501-3670 1937.2-3237 1629.4-2869.5l-77 92.4 130.8 77c248.2 146.2 723.5 371.4 771.6 363.7 13.5-2 57.8-92.5 100.1-202.2z" style="paint-order:fill;stroke:#2c48e6;fill-rule:nonzero;fill:#2057b6" transform="matrix(.00918 0 0 -.00918 5.128 51.796)"/></g></svg></svg>