<?xml version="1.0" encoding="utf-8"?>
<svg version="1.1" width="40px" height="40px" viewBox="0 0 92 92" xmlns="http://www.w3.org/2000/svg" xmlns:bx="https://boxy-svg.com">
  <desc>Created with Fabric.js 5.2.4</desc>
  <g transform="matrix(1 0 0 1 50 50)" id="43929a87-7cd9-44c6-8721-b8c4051ab134">
    <rect style="stroke: none; stroke-width: 1; stroke-dasharray: none; stroke-linecap: butt; stroke-dashoffset: 0; stroke-linejoin: miter; stroke-miterlimit: 4; fill: rgb(255,255,255); fill-rule: nonzero; opacity: 1; visibility: hidden;" vector-effect="non-scaling-stroke" x="-50" y="-50" rx="0" ry="0" width="100" height="100"/>
  </g>
  <g transform="matrix(Infinity NaN NaN Infinity 0 0)" id="026150e6-cad9-493a-93ad-eb4495ef0715"/>
  <g transform="matrix(0.091837, 0, 0, 0.098651, 46.000137, 45.99966)" style="" bx:origin="0.477776 0.495767">
    <g style="" vector-effect="non-scaling-stroke">
      <g transform="matrix(1 0 0 1 0 66.35)">
        <path style="stroke: none; stroke-width: 1; stroke-dasharray: none; stroke-linecap: butt; stroke-dashoffset: 0; stroke-linejoin: miter; stroke-miterlimit: 4; fill-rule: nonzero; opacity: 1; fill: rgb(32, 87, 182);" vector-effect="non-scaling-stroke" transform=" translate(-500, -566.3)" d="M 990 800.2 C 990 886.3000000000001 920.2 956.1 834.1 956.1 L 165.9 956.1 C 79.8 956.1 10 886.3 10 800.2 L 10 332.4 C 10 246.29999999999998 79.8 176.49999999999997 165.9 176.49999999999997 L 834.1 176.49999999999997 C 920.2 176.49999999999997 990 246.29999999999995 990 332.4 L 990 800.2 z M 945.3 332.5 C 945.3 271 895.4 221.1 833.9 221.1 L 166 221.1 C 104.5 221.1 54.599999999999994 271 54.599999999999994 332.5 L 54.599999999999994 800.1 C 54.599999999999994 861.6 104.5 911.5 166 911.5 L 834 911.5 C 895.5 911.5 945.4 861.6 945.4 800.1 L 945.4 332.5 z" stroke-linecap="round"/>
      </g>
      <g transform="matrix(1 0 0 1 0 -367.5)">
        <path style="stroke: none; stroke-width: 1; stroke-dasharray: none; stroke-linecap: butt; stroke-dashoffset: 0; stroke-linejoin: miter; stroke-miterlimit: 4; fill-rule: nonzero; opacity: 1; fill: rgb(32, 87, 182);" vector-effect="non-scaling-stroke" transform=" translate(-500, -132.45)" d="M 723.4 221.1 L 276.6 221.1 L 276.6 123.1 C 276.6 71.69999999999999 326.8 43.8 373.5 43.8 L 640.8 43.8 C 690.5999999999999 43.8 723.4 75 723.4 123.1 L 723.4 221.1 z M 321.3 176.5 L 678.7 176.5 L 678.7 123.2 C 678.7 108.3 674.3000000000001 88.6 640.8000000000001 88.6 L 373.5 88.6 C 353.5 88.6 321.3 98 321.3 123.19999999999999 L 321.3 176.5 z" stroke-linecap="round"/>
      </g>
      <g transform="matrix(1 0 0 1 -267.3 56.3)">
        <path style="stroke: none; stroke-width: 1; stroke-dasharray: none; stroke-linecap: butt; stroke-dashoffset: 0; stroke-linejoin: miter; stroke-miterlimit: 4; fill-rule: nonzero; opacity: 1; fill: rgb(32, 87, 182);" vector-effect="non-scaling-stroke" transform=" translate(-232.7, -556.25)" d="M 232.7 845.8 C 220.39999999999998 845.8 210.39999999999998 835.8 210.39999999999998 823.5 L 210.39999999999998 289 C 210.39999999999998 276.7 220.39999999999998 266.7 232.7 266.7 C 245 266.7 255 276.7 255 289 L 255 823.5 C 255 835.8 245 845.8 232.7 845.8 z" stroke-linecap="round"/>
      </g>
      <g transform="matrix(1 0 0 1 267.3 56.3)">
        <path style="stroke: none; stroke-width: 1; stroke-dasharray: none; stroke-linecap: butt; stroke-dashoffset: 0; stroke-linejoin: miter; stroke-miterlimit: 4; fill-rule: nonzero; opacity: 1; fill: rgb(32, 87, 182);" vector-effect="non-scaling-stroke" transform=" translate(-767.3, -556.25)" d="M 767.3 845.8 C 755 845.8 745 835.8 745 823.5 L 745 289 C 745 276.7 755 266.7 767.3 266.7 C 779.5999999999999 266.7 789.5999999999999 276.7 789.5999999999999 289 L 789.5999999999999 823.5 C 789.7 835.8 779.6 845.8 767.3 845.8 z" stroke-linecap="round"/>
      </g>
    </g>
  </g>
</svg>