<?xml version="1.0" encoding="utf-8"?>
<!-- Svg Vector Icons : http://www.onlinewebfonts.com/icon -->
<!DOCTYPE svg PUBLIC "-//W3C//DTD SVG 1.1//EN" "http://www.w3.org/Graphics/SVG/1.1/DTD/svg11.dtd">
<svg version="1.1" xmlns="http://www.w3.org/2000/svg" xmlns:xlink="http://www.w3.org/1999/xlink" x="0px" y="0px" viewBox="0 0 1000 1000" enable-background="new 0 0 1000 1000" xml:space="preserve">
<metadata> Svg Vector Icons : http://www.onlinewebfonts.com/icon </metadata>
<g><path d="M872.7,989.3H127.3V478.6H161v476.9h677.9V478.6h33.8V989.3z"/><path d="M33.7,518.5l-23.7-24L500,10.7l490,483.8l-23.7,24L500,58.1L33.7,518.5z"/><path d="M651.2,972.4h-33.7V602.1c0-22.7-18.5-41.2-41.2-41.2H423.8c-22.7,0-41.2,18.5-41.2,41.2v370.4h-33.7V602.1c0-41.3,33.6-75,75-75h152.5c41.4,0,75,33.6,75,75V972.4z"/></g>
</svg>