<?xml version="1.0" encoding="utf-8"?>
<svg version="1.1" x="0px" y="0px" viewBox="0 0 92 92" enable-background="new 0 0 1000 1000" width="40px" height="40px" xmlns="http://www.w3.org/2000/svg">
  <g transform="matrix(0.097965, 0, 0, 0.091827, -2.381907, 2.091258)">
    <path d="M745,990c0,0-153.1-155.9-153.1-242.1c0-86.2,58-156.1,153.1-156.1c95.1,0,153.1,69.9,153.1,156.1C898.1,834.1,745,990,745,990z M745,683.4c-33.8,0-61.3,27.5-61.3,61.4c0,33.9,27.4,61.3,61.3,61.3c33.8,0,61.3-27.5,61.3-61.3C806.3,710.9,778.8,683.4,745,683.4z M530.6,745c0,41.8,23.4,85.6,47.2,128c8.2,5.5,14,14.4,14,25.1c0,16.9-13.7,30.6-30.6,30.6H132.5c-16.9,0-30.6-13.7-30.6-30.6s13.7-30.6,30.6-30.6h38.8c-5-8.8-8.2-19-8.2-30.6c0,0,0-486.5,0-612.5c0-38.3,12.9-61.3,61.3-61.3c-39.6,0-36.4-61.3,0-61.3c1.4,0,7.7,0,30.6,0c0-19.1,0-4.8,0-30.6c0-29.7,31.4-61.3,62.2-61.3c62.1,0,154,0,215.3,0c28.2,0,59.4,35.4,59.4,61.3c0,19.1,1,16.3,1,30.6c22.1,0,28.2,0,29.7,0c37.3,0,39.6,61.3,0,61.3c35.7,0,61.3,24.5,61.3,61.3c0,0,0,138,0,306.5C625.3,530.8,530.6,623.3,530.6,745z M316.3,867.5h214.4v-91.9H316.3V867.5z M377.5,377.5v91.9h91.9v-91.9H377.5z M469.4,316.3v-91.9h-91.9v91.9H469.4z M377.5,530.6v91.9h91.9v-91.9H377.5z M224.4,622.5h91.9v-91.9h-91.9V622.5z M224.4,469.4h91.9v-91.9h-91.9V469.4z M224.4,316.3h91.9v-91.9h-91.9V316.3z M530.6,71.3c-49,0-165.5,0-214.4,0c0,15.3,0.9,57.4,0.9,91.9c66.7,0,150,0,213.4,0C530.6,149.7,530.6,88.5,530.6,71.3z M622.5,224.4h-91.9v91.9h91.9V224.4z M622.5,377.5h-91.9v91.9h91.9V377.5z M530.6,530.6v61.3l30.6-30.6l30.6-30.6H530.6z" style="fill: rgb(32, 87, 182);"/>
  </g>
</svg>