<?xml version="1.0" encoding="UTF-8" standalone="no"?>
<svg
   viewBox="0 0 31 31"
   version="1.1"
   id="svg150"
   sodipodi:docname="instagram-w.svg"
   width="31"
   height="31"
   inkscape:version="1.2.2 (732a01da63, 2022-12-09)"
   xmlns:inkscape="http://www.inkscape.org/namespaces/inkscape"
   xmlns:sodipodi="http://sodipodi.sourceforge.net/DTD/sodipodi-0.dtd"
   xmlns="http://www.w3.org/2000/svg"
   xmlns:svg="http://www.w3.org/2000/svg">
  <defs
     id="defs154" />
  <sodipodi:namedview
     id="namedview152"
     pagecolor="#ffffff"
     bordercolor="#000000"
     borderopacity="0.25"
     inkscape:showpageshadow="2"
     inkscape:pageopacity="0.0"
     inkscape:pagecheckerboard="0"
     inkscape:deskcolor="#d1d1d1"
     showgrid="false"
     inkscape:zoom="35.59375"
     inkscape:cx="22.911326"
     inkscape:cy="16.140474"
     inkscape:window-width="2560"
     inkscape:window-height="1368"
     inkscape:window-x="-8"
     inkscape:window-y="-8"
     inkscape:window-maximized="1"
     inkscape:current-layer="svg150" />
  <path
     d="M 4.7945312,30.5 H 26.005469 C 28.428641,30.5 30.4,28.528641 30.4,26.105469 V 4.8945312 C 30.4,2.4713592 28.428641,0.5 26.005469,0.5 H 4.7945312 C 2.3713592,0.5 0.4,2.4713592 0.4,4.8945312 V 26.105469 C 0.4,28.528641 2.3713592,30.5 4.7945312,30.5 Z M 2.1578125,4.8945312 c 0,-1.4538573 1.1828614,-2.6367187 2.6367187,-2.6367187 H 26.005469 c 1.453857,0 2.636718,1.1828614 2.636718,2.6367187 V 26.105469 c 0,1.453857 -1.182861,2.636718 -2.636718,2.636718 H 4.7945312 c -1.4538573,0 -2.6367187,-1.182861 -2.6367187,-2.636718 z m 0,0"
     id="path144"
     style="fill:#ffffff;stroke-width:0.0585938" />
  <path
     d="m 15.4,23.410156 c 4.361572,0 7.910156,-3.548584 7.910156,-7.910156 0,-4.361572 -3.548584,-7.9101563 -7.910156,-7.9101563 -4.361572,0 -7.9101563,3.5485843 -7.9101563,7.9101563 0,4.361572 3.5485843,7.910156 7.9101563,7.910156 z m 0,-14.0624997 c 3.392486,0 6.152344,2.7598577 6.152344,6.1523437 0,3.392486 -2.759858,6.152344 -6.152344,6.152344 -3.392486,0 -6.1523437,-2.759858 -6.1523437,-6.152344 0,-3.392486 2.7598577,-6.1523437 6.1523437,-6.1523437 z m 0,0"
     id="path146"
     style="fill:#ffffff;stroke-width:0.0585938" />
  <path
     d="m 24.189062,9.3476563 c 1.453858,0 2.636719,-1.1828613 2.636719,-2.6367188 0,-1.4538575 -1.182861,-2.6367187 -2.636719,-2.6367187 -1.453857,0 -2.636718,1.1828612 -2.636718,2.6367187 0,1.4538575 1.182861,2.6367188 2.636718,2.6367188 z m 0,-3.5156251 c 0.484544,0 0.878907,0.3943635 0.878907,0.8789063 0,0.4845427 -0.394363,0.8789062 -0.878907,0.8789062 -0.484543,0 -0.878906,-0.3943635 -0.878906,-0.8789062 0,-0.4845428 0.394363,-0.8789063 0.878906,-0.8789063 z m 0,0"
     id="path148"
     style="fill:#ffffff;stroke-width:0.0585938" />
</svg>
