<?xml version="1.0" encoding="UTF-8" standalone="no"?>
<svg
   class="svg-icon"
   style="overflow:hidden;fill:currentColor"
   viewBox="0 0 31 31"
   version="1.1"
   id="svg434"
   sodipodi:docname="youtube-w.svg"
   width="31"
   height="31"
   inkscape:version="1.2.2 (732a01da63, 2022-12-09)"
   xmlns:inkscape="http://www.inkscape.org/namespaces/inkscape"
   xmlns:sodipodi="http://sodipodi.sourceforge.net/DTD/sodipodi-0.dtd"
   xmlns="http://www.w3.org/2000/svg"
   xmlns:svg="http://www.w3.org/2000/svg">
  <defs
     id="defs438" />
  <sodipodi:namedview
     id="namedview436"
     pagecolor="#ffffff"
     bordercolor="#000000"
     borderopacity="0.25"
     inkscape:showpageshadow="2"
     inkscape:pageopacity="0.0"
     inkscape:pagecheckerboard="0"
     inkscape:deskcolor="#d1d1d1"
     showgrid="false"
     inkscape:zoom="25.168582"
     inkscape:cx="11.144847"
     inkscape:cy="18.217157"
     inkscape:window-width="2560"
     inkscape:window-height="1368"
     inkscape:window-x="-8"
     inkscape:window-y="-8"
     inkscape:window-maximized="1"
     inkscape:current-layer="svg434" />
  <path
     d="m 19.568316,21.335892 v 3.532366 q 0,1.121652 -0.789478,1.121652 -0.46559,0 -0.910932,-0.368305 v -5.039062 q 0.445342,-0.368303 0.910932,-0.368303 0.789478,0 0.789478,1.121652 z m 6.8421,0.01674 v 0.77009 h -1.821863 v -0.77009 q 0,-1.138392 0.910932,-1.138392 0.910931,0 0.910931,1.138392 z M 6.8557594,17.703078 H 9.0217501 V 16.129417 H 2.7059625 v 1.573661 h 2.1255093 v 9.525669 h 2.0242876 z m 5.8299656,9.525669 h 1.801612 v -8.270088 h -1.801612 v 6.328125 q -0.607293,0.703126 -1.153847,0.703126 -0.364377,0 -0.425109,-0.351563 -0.02025,-0.05022 -0.02025,-0.585938 v -6.09375 H 9.2848947 v 6.545759 q 0,0.820313 0.1619443,1.222098 0.2429154,0.61942 1.174096,0.61942 0.971654,0 2.064779,-1.021205 z m 8.684204,-2.477678 v -3.297992 q 0,-1.222098 -0.182185,-1.657365 -0.344128,-0.9375 -1.437243,-0.9375 -1.012145,0 -1.882595,0.904018 v -3.632813 h -1.801622 v 11.09933 h 1.801622 v -0.803571 q 0.910932,0.920759 1.882595,0.920759 1.093115,0 1.437243,-0.920759 0.182185,-0.45201 0.182185,-1.674107 z m 6.842109,-0.167411 v -0.217634 h -1.842104 q 0,0.853794 -0.04049,1.021205 -0.141703,0.602679 -0.809719,0.602679 -0.931172,0 -0.931172,-1.155134 v -1.456473 h 3.623484 v -1.72433 q 0,-1.322545 -0.546562,-1.941964 -0.789469,-0.853795 -2.14575,-0.853795 -1.376513,0 -2.165991,0.853795 -0.566803,0.619419 -0.566803,1.941964 v 2.896205 q 0,1.322544 0.587053,1.941963 0.789469,0.853796 2.186232,0.853796 1.457484,0 2.18623,-0.887278 0.364379,-0.452009 0.4251,-0.904017 0.04051,-0.15067 0.04051,-0.970982 z M 15.904341,9.2990621 V 5.7834368 q 0,-1.1551333 -0.87044,-1.1551333 -0.87045,0 -0.87045,1.1551333 v 3.5156253 q 0,1.1718749 0.87045,1.1718749 0.87044,0 0.87044,-1.1718749 z M 30.459,21.871606 q 0,3.91741 -0.526312,5.859375 -0.283407,0.987726 -1.174098,1.657365 -0.89068,0.669638 -2.064768,0.770096 Q 22.969125,30.51 15.459001,30.51 7.9488751,30.51 4.2241781,30.158442 3.0500906,30.057984 2.1492844,29.388346 1.2484781,28.718707 0.9853125,27.730981 0.459,25.85598 0.459,21.871606 q 0,-3.917411 0.5263125,-5.859375 0.2834062,-0.987723 1.1740968,-1.657365 0.8906813,-0.669644 2.0850188,-0.786831 3.704447,-0.334822 11.2145729,-0.334822 7.510124,0 11.234821,0.334822 1.174088,0.117187 2.074894,0.786831 0.900807,0.669642 1.163972,1.657365 Q 30.459,17.88723 30.459,21.871606 Z M 10.256569,0.51 h 2.064778 L 9.87196,7.1896874 V 11.726518 H 7.8476625 V 7.1896874 Q 7.5642657,5.9508481 6.6128438,3.6405799 5.8638563,1.9162497 5.2970531,0.51 h 2.1457501 l 1.4372531,4.4029011 z m 7.489885,5.5747758 v 2.929688 q 0,1.3560272 -0.566803,1.9754462 -0.748988,0.853795 -2.14575,0.853795 -1.356273,0 -2.12551,-0.853795 -0.566804,-0.636161 -0.566804,-1.9754462 v -2.929688 q 0,-1.3392851 0.566804,-1.9587044 0.769237,-0.8537952 2.12551,-0.8537952 1.396762,0 2.14575,0.8537952 0.566803,0.6194193 0.566803,1.9587044 z m 6.781368,-2.712053 v 8.3537952 h -1.842103 v -0.920759 q -1.072875,1.037946 -2.085019,1.037946 -0.931171,0 -1.194328,-0.619421 Q 19.244429,10.8225 19.244429,9.9687048 v -6.595982 h 1.842103 v 6.1439727 q 0,0.5524555 0.02025,0.5859385 0.06075,0.368303 0.4251,0.368303 0.546562,0 1.153846,-0.7198663 V 3.3727228 Z"
     id="path432"
     style="fill:#ffffff;stroke-width:0.0368178" />
</svg>
