<?xml version="1.0" encoding="utf-8"?>
<svg version="1.1" x="0px" y="0px" viewBox="0 0 92 92" enable-background="new 0 0 1000 1000" width="40px" height="40px" xmlns="http://www.w3.org/2000/svg" xmlns:bx="https://boxy-svg.com">
  <g transform="matrix(0.091818, 0, 0, 0.097112, 0.081814, -2.583933)" style="" bx:origin="0.499898 0.5">
    <g transform="matrix(1 0 0 -1 0 1920)">
      <path d="M167.7,1431.2l-16.7,87l-83.3-29l29,83.3L10,1589.2l66.6,57.6L10,1704.5l86.7,16.7l-29,83.3l83.3-29l16.7,87l57.6-66.9l58,66.9l16.4-87l83.7,29l-29-83.3l86.7-16.7l-66.9-57.6l66.9-57.6l-86.7-16.7l29-83.3l-83.7,29l-16.4-87l-58,66.9L167.7,1431.2z M225.3,1528.2c21.6,0,41.5,5.3,59.7,16c18.2,10.7,32.6,25,43.1,43.1c10.5,18.1,15.8,37.9,15.8,59.5c0,32.7-11.6,60.7-34.8,83.9c-23.2,23.2-51.1,34.8-83.9,34.8c-32.7,0-60.6-11.6-83.7-34.8c-23.1-23.2-34.6-51.1-34.6-83.9c0-32.7,11.5-60.7,34.6-83.9C164.7,1539.8,192.6,1528.2,225.3,1528.2z M589.8,977.4V996c0,5.2,1.8,9.6,5.4,13.2c3.6,3.6,8,5.4,13.2,5.4H627v148.8H385.3c-6.4,0-9.7,1.9-9.7,5.6c0,2.2,1.4,4.7,4.1,7.4L556,1349.3h-132c-6.4,0-9.7,1.9-9.7,5.6c0,2.2,1.4,4.7,4.1,7.4l176.3,172.9h-94.8c-6.4,0-9.7,1.9-9.7,5.6c0,2.2,1.4,4.7,4.1,7.4l188.6,189.3l188.6-189.3c2.7-2.7,4.1-5.2,4.1-7.4c0-3.7-3.2-5.6-9.7-5.6h-94.8l176.3-172.9c2.7-2.7,4.1-5.2,4.1-7.4c0-3.7-3.2-5.6-9.7-5.6h-132l176.3-172.9c2.7-2.7,4.1-5.2,4.1-7.4c0-3.7-3.2-5.6-9.7-5.6H738.6v-148.8h18.6c5.2,0,9.6-1.8,13.2-5.4c3.6-3.6,5.4-8,5.4-13.2v-18.6H589.8z M31.9,977.4V993c0,3.5,0.8,6.8,2.4,10c1.6,3.2,3.9,6,6.9,8.2c3,2.2,6.1,3.3,9.3,3.3h11.2l174.1,277.4l-50.2,68.1c-1.5,2.7-2.2,5.7-2.2,8.9c0,6.2,2.6,10.9,7.8,14.1c2.7,1.7,5.7,2.6,8.9,2.6c6.2,0,10.9-2.7,14.1-8.2l41.3-55l41.7,55.8c3.2,5.5,7.9,8.2,14.1,8.2c3.2,0,6.1-0.7,8.6-2.2c5.5-3.5,8.2-8.2,8.2-14.1c0-3-0.9-5.8-2.6-8.6l-50.6-69.5l173.7-277.4h11.2c5,0,9.3-2.3,13-6.9c3.7-4.6,5.6-9.5,5.6-14.7v-15.6H31.9z M255.1,1014.6h140.2l-67.7,41.7l-72.5,198.6V1014.6z" style="fill: rgb(32, 87, 182);"/>
    </g>
  </g>
</svg>