<?xml version="1.0" encoding="utf-8"?>
<!-- Svg Vector Icons : http://www.onlinewebfonts.com/icon -->
<!DOCTYPE svg PUBLIC "-//W3C//DTD SVG 1.1//EN" "http://www.w3.org/Graphics/SVG/1.1/DTD/svg11.dtd">
<svg version="1.1" xmlns="http://www.w3.org/2000/svg" xmlns:xlink="http://www.w3.org/1999/xlink" x="0px" y="0px" viewBox="0 0 1000 1000" enable-background="new 0 0 1000 1000" xml:space="preserve">
<metadata> Svg Vector Icons : http://www.onlinewebfonts.com/icon </metadata>
<g><g transform="translate(0.000000,512.000000) scale(0.100000,-0.100000)"><path d="M2124.5,5013.8c-15.3-3.8-93.9-17.2-170.5-28.7c-283.5-46-684-222.2-929.2-406.2C-101.7,3732.1-203.2,2316.3,743.2,626.5c479-852.6,1145.7-1693.6,2107.4-2653.5c620.7-618.8,1065.2-1011.6,1601.7-1413.9C6075-4659.4,7477.5-5054.1,8546.5-4594.3c415.8,178.2,833.4,561.3,1065.2,975.2c174.4,312.3,310.4,816.2,283.5,1042.2c-26.8,206.9-180.1,383.2-452.1,521.1c-176.3,88.1-1645.7,639.9-1820.1,682.1c-174.3,44.1-251,46-377.4,7.7c-172.4-51.7-249.1-139.8-436.8-511.5c-182-360.2-210.8-400.4-325.7-461.7c-67.1-36.4-107.3-42.2-306.5-42.2c-281.6,0-348.7,19.2-689.7,206.9c-634.2,344.9-1013.5,634.2-1584.4,1205.1C3329.6-394.7,3048-24.9,2705,607.3c-187.8,341-206.9,408.1-206.9,689.7c0,199.2,5.7,239.5,42.2,306.5c61.3,115,101.5,143.7,436.8,312.3c168.6,84.3,342.9,185.8,387,222.2c151.3,130.3,203.1,321.9,151.3,563.3c-32.6,155.2-590.1,1659.1-697.4,1879.5c-88.1,180.1-222.3,329.5-346.8,383.2C2381.2,5002.3,2189.7,5029.1,2124.5,5013.8z"/><path d="M5477.3,4981.2c-92-47.9-172.4-170.5-172.4-264.4c0-26.8,19.2-88.1,44.1-134.1c59.4-118.8,166.7-172.4,344.9-172.4c726.1,0,1551.8-293.1,2178.3-775.9c509.6-390.8,963.7-1013.5,1189.7-1626.6c130.3-352.5,228-860.2,228-1189.8c0-182,51.7-289.3,172.4-348.7c46-24.9,107.3-44.1,134.1-44.1c93.9,0,216.5,80.5,264.4,172.4c42.1,80.5,44.1,99.6,34.5,325.7c-30.6,613.1-176.2,1174.4-446.4,1714.7c-697.4,1400.5-2076.8,2301-3645.9,2377.6C5576.9,5025.3,5557.8,5023.4,5477.3,4981.2z"/><path d="M5170.7,3755.1c-159-80.5-220.3-300.8-120.7-433c80.4-107.3,122.6-124.5,373.6-141.8c429.1-28.7,777.8-120.7,1120.8-295c270.1-137.9,477-289.3,705-515.4c492.4-490.5,766.3-1101.6,806.6-1797.1c13.4-245.2,32.6-302.7,113-375.5c168.6-147.5,429.2-65.1,488.5,153.3c28.7,103.5,0,479-57.5,758.7c-298.9,1446.5-1513.5,2527-2998.3,2668.8C5306.8,3804.9,5266.5,3803,5170.7,3755.1z"/><path d="M4868,2538.5c-224.2-109.2-226.1-425.3-3.8-536.4c57.5-30.6,118.8-44.1,191.6-44.1c264.4,0,628.4-107.3,885.1-260.6c203.1-122.6,450.2-356.4,580.5-551.8c189.7-285.5,285.5-570.9,312.3-934.9c19.2-239.5,42.1-287.4,176.3-354.4c107.3-55.5,160.9-55.5,268.2,0c63.2,30.7,97.7,65.1,130.3,128.4c42.1,78.5,44.1,101.5,32.6,268.2c-24.9,364-101.5,651.4-260.5,969.4c-243.3,490.5-691.6,915.8-1191.7,1136.1C5596.1,2530.8,5034.7,2620.9,4868,2538.5z"/><path d="M4561.5,1312.3c-34.5-17.2-86.2-61.3-115-97.7c-70.9-92-72.8-252.9-5.8-346.8c57.5-78.5,176.3-134.1,289.3-136c218.4-1.9,423.4-95.8,605.4-275.9c180.1-182,274-387,275.9-605.4c1.9-243.3,203.1-396.6,411.9-316.1C6190-402.4,6243.6-274,6211.1-17.3c-26.8,210.7-101.5,433-201.2,605.4c-101.5,174.3-367.8,440.6-542.2,542.2C5170.7,1302.8,4724.4,1392.8,4561.5,1312.3z"/></g></g>
</svg>